<?xml version="1.0" encoding="UTF-8"?>
<svg xmlns="http://www.w3.org/2000/svg" xmlns:xlink="http://www.w3.org/1999/xlink" width="30" height="30" viewBox="0 0 30 30">
<path fill-rule="nonzero" fill="rgb(100%, 100%, 100%)" fill-opacity="1" d="M 30 15 C 30 23.285156 23.285156 30 15 30 C 6.714844 30 0 23.285156 0 15 C 0 6.714844 6.714844 0 15 0 C 23.285156 0 30 6.714844 30 15 Z M 30 15 "/>
<path fill-rule="nonzero" fill="rgb(0%, 0%, 0%)" fill-opacity="1" d="M 15.351562 1.542969 C 13.421875 1.511719 11.507812 1.890625 9.734375 2.664062 C 2.914062 5.636719 -0.207031 13.578125 2.765625 20.398438 C 5.285156 26.132812 11.414062 29.375 17.570312 28.230469 C 17.832031 27.394531 18.046875 26.476562 18.046875 25.476562 C 18.046875 25.335938 18.042969 25.191406 18.035156 25.046875 C 18.035156 25.046875 18.519531 24.226562 18.898438 23.15625 C 19.367188 21.832031 19.117188 20.375 18.304688 19.222656 C 18.257812 19.160156 18.210938 19.089844 18.160156 19.019531 C 13.371094 19.019531 11 14.675781 10.402344 12.035156 C 10.152344 10.949219 9.953125 10.84375 9.273438 10.84375 C 8.019531 10.84375 7.113281 10.324219 7.113281 10.324219 C 5.960938 10.851562 5.445312 10.636719 5.601562 10.085938 C 5.101562 10.03125 5.109375 9.460938 5.417969 8.9375 C 5.796875 8.28125 6.582031 7.835938 7.515625 7.835938 L 8.015625 7.835938 C 9.050781 7.835938 9.265625 7.296875 10.332031 7.410156 C 10.496094 7.425781 10.648438 7.453125 10.792969 7.488281 C 11.089844 7.148438 11.425781 7.007812 11.832031 7.035156 C 11.894531 7.042969 11.933594 7.097656 11.921875 7.15625 L 11.824219 7.613281 C 11.789062 7.785156 11.835938 7.960938 11.957031 8.078125 C 12.816406 8.882812 13.3125 10.257812 13.863281 11.496094 C 14.757812 13.324219 16.921875 15.859375 20.394531 12.605469 C 22.832031 10.3125 24.304688 8.40625 26.730469 8.21875 C 24.359375 4.164062 20.050781 1.632812 15.351562 1.542969 M 9.632812 8.171875 C 9.277344 8.171875 8.921875 8.457031 9.042969 8.507812 C 9.070312 8.519531 9.117188 8.527344 9.167969 8.535156 C 9.203125 8.761719 9.394531 8.9375 9.632812 8.9375 C 9.871094 8.9375 10.058594 8.761719 10.097656 8.535156 C 10.148438 8.527344 10.195312 8.519531 10.222656 8.507812 C 10.34375 8.457031 9.988281 8.171875 9.632812 8.171875 M 22.21875 21.125 C 21.929688 21.132812 21.671875 21.316406 21.585938 21.597656 L 21.585938 21.601562 C 21.15625 22.984375 20.316406 24.765625 20.316406 24.765625 C 20.316406 24.765625 19.484375 26.242188 19.015625 27.894531 C 19.519531 27.746094 20.015625 27.570312 20.503906 27.367188 C 21.453125 26.953125 22.351562 26.429688 23.179688 25.804688 C 23.050781 25.550781 22.90625 25.285156 22.730469 25.015625 C 22.730469 25.015625 22.457031 23.789062 21.925781 22.449219 C 22.007812 22.226562 22.082031 22.003906 22.152344 21.777344 L 22.15625 21.761719 C 22.171875 21.730469 22.207031 21.71875 22.246094 21.71875 L 22.25 21.71875 C 22.527344 21.761719 22.820312 21.804688 23.15625 21.84375 C 23.261719 21.851562 23.367188 21.859375 23.472656 21.875 C 23.605469 21.882812 23.730469 21.898438 23.859375 21.90625 C 23.890625 23.148438 24.429688 24.332031 24.566406 24.617188 C 25.5625 23.636719 26.398438 22.511719 27.046875 21.277344 C 26.085938 21.386719 24.914062 21.421875 23.53125 21.285156 C 23.421875 21.273438 23.308594 21.261719 23.199219 21.253906 C 22.894531 21.21875 22.609375 21.179688 22.34375 21.132812 C 22.300781 21.128906 22.257812 21.125 22.21875 21.125 "/>
</svg>
